<mxfile host="app.diagrams.net" modified="2021-05-16T09:19:51.777Z" agent="5.0 (X11; Linux x86_64) AppleWebKit/537.36 (KHTML, like Gecko) Chrome/90.0.4430.85 Safari/537.36" etag="l7Q6JPxOdB7RjjxwEaLT" version="14.6.13" type="github">
  <diagram name="Page-1" id="55a83fd1-7818-8e21-69c5-c3457e3827bb">
    <mxGraphModel dx="1640" dy="260" grid="0" gridSize="10" guides="1" tooltips="1" connect="1" arrows="1" fold="1" page="0" pageScale="1" pageWidth="1100" pageHeight="850" background="#ffffff" math="0" shadow="0">
      <root>
        <mxCell id="0" />
        <mxCell id="1" parent="0" />
        <mxCell id="69ecfefc5c41e42c-2" value="&lt;font style=&quot;font-size: 15px&quot;&gt;&lt;b&gt;Web app&lt;/b&gt;&lt;/font&gt;" style="image;html=1;labelBackgroundColor=#ffffff;image=img/lib/clip_art/networking/Cloud_128x128.png;rounded=1;shadow=0;comic=0;strokeWidth=2;fontSize=22;labelPosition=center;verticalLabelPosition=top;align=center;verticalAlign=bottom;" parent="1" vertex="1">
          <mxGeometry x="923" y="656" width="80" height="80" as="geometry" />
        </mxCell>
        <mxCell id="MjQFtGHn8YKXt0y_AhjD-10" value="" style="edgeStyle=orthogonalEdgeStyle;rounded=0;orthogonalLoop=1;jettySize=auto;html=1;entryX=0.25;entryY=0;entryDx=0;entryDy=0;" edge="1" parent="1" source="MjQFtGHn8YKXt0y_AhjD-1" target="MjQFtGHn8YKXt0y_AhjD-2">
          <mxGeometry relative="1" as="geometry">
            <mxPoint x="618" y="587" as="targetPoint" />
            <Array as="points">
              <mxPoint x="594" y="540" />
              <mxPoint x="594" y="540" />
            </Array>
          </mxGeometry>
        </mxCell>
        <mxCell id="MjQFtGHn8YKXt0y_AhjD-1" value="&lt;font style=&quot;font-size: 15px&quot;&gt;&lt;b&gt;Server&lt;/b&gt;&lt;/font&gt;" style="image;html=1;image=img/lib/clip_art/computers/Server_128x128.png" vertex="1" parent="1">
          <mxGeometry x="578" y="417" width="80" height="80" as="geometry" />
        </mxCell>
        <mxCell id="MjQFtGHn8YKXt0y_AhjD-12" value="" style="edgeStyle=orthogonalEdgeStyle;rounded=0;orthogonalLoop=1;jettySize=auto;html=1;" edge="1" parent="1" source="MjQFtGHn8YKXt0y_AhjD-2">
          <mxGeometry relative="1" as="geometry">
            <mxPoint x="630" y="497" as="targetPoint" />
            <Array as="points">
              <mxPoint x="630" y="497" />
            </Array>
          </mxGeometry>
        </mxCell>
        <mxCell id="MjQFtGHn8YKXt0y_AhjD-14" value="" style="edgeStyle=orthogonalEdgeStyle;rounded=0;orthogonalLoop=1;jettySize=auto;html=1;entryX=0;entryY=0.5;entryDx=0;entryDy=0;" edge="1" parent="1" source="MjQFtGHn8YKXt0y_AhjD-2" target="69ecfefc5c41e42c-2">
          <mxGeometry relative="1" as="geometry">
            <mxPoint x="714" y="696" as="targetPoint" />
            <Array as="points">
              <mxPoint x="849" y="696" />
              <mxPoint x="849" y="696" />
            </Array>
          </mxGeometry>
        </mxCell>
        <mxCell id="MjQFtGHn8YKXt0y_AhjD-2" value="&lt;b&gt;&lt;font style=&quot;font-size: 15px&quot;&gt;Database&lt;/font&gt;&lt;/b&gt;" style="image;html=1;image=img/lib/clip_art/computers/Database_128x128.png" vertex="1" parent="1">
          <mxGeometry x="574" y="656" width="80" height="80" as="geometry" />
        </mxCell>
        <mxCell id="MjQFtGHn8YKXt0y_AhjD-4" value="" style="image;html=1;image=img/lib/clip_art/people/Suit_Man_128x128.png" vertex="1" parent="1">
          <mxGeometry x="-58" y="462.5" width="80" height="80" as="geometry" />
        </mxCell>
        <mxCell id="MjQFtGHn8YKXt0y_AhjD-8" value="" style="edgeStyle=orthogonalEdgeStyle;rounded=0;orthogonalLoop=1;jettySize=auto;html=1;entryX=0;entryY=0.25;entryDx=0;entryDy=0;" edge="1" parent="1" source="MjQFtGHn8YKXt0y_AhjD-5" target="MjQFtGHn8YKXt0y_AhjD-1">
          <mxGeometry relative="1" as="geometry">
            <mxPoint x="337" y="521" as="sourcePoint" />
            <mxPoint x="397" y="500" as="targetPoint" />
            <Array as="points">
              <mxPoint x="247" y="437" />
            </Array>
          </mxGeometry>
        </mxCell>
        <mxCell id="MjQFtGHn8YKXt0y_AhjD-5" value="&lt;font style=&quot;font-size: 15px&quot;&gt;&lt;b&gt;Rasprry pi&lt;/b&gt;&lt;/font&gt;" style="fontColor=#0066CC;verticalAlign=top;verticalLabelPosition=bottom;labelPosition=center;align=center;html=1;outlineConnect=0;fillColor=#CCCCCC;strokeColor=#6881B3;gradientColor=none;gradientDirection=north;strokeWidth=2;shape=mxgraph.networks.security_camera;" vertex="1" parent="1">
          <mxGeometry x="197" y="462.5" width="100" height="75" as="geometry" />
        </mxCell>
        <mxCell id="MjQFtGHn8YKXt0y_AhjD-6" value="" style="endArrow=classic;html=1;" edge="1" parent="1" source="MjQFtGHn8YKXt0y_AhjD-4">
          <mxGeometry width="50" height="50" relative="1" as="geometry">
            <mxPoint x="464" y="618" as="sourcePoint" />
            <mxPoint x="187" y="507" as="targetPoint" />
          </mxGeometry>
        </mxCell>
      </root>
    </mxGraphModel>
  </diagram>
</mxfile>
